<svg width="48" height="48" viewBox="0 0 48 48" fill="none" xmlns="http://www.w3.org/2000/svg">
    <path d="M10.3625 16.1215C10.4475 15.9645 10.5595 15.81 10.7925 15.692L14.122 13.7685C14.168 13.742 14.217 13.722 14.27 13.7085C14.286 13.7045 14.3025 13.7045 14.3205 13.702C14.355 13.696 14.3895 13.69 14.424 13.69H14.4305V13.6915C14.5295 13.693 14.626 13.7195 14.7115 13.7685L22.203 18.096L22.2095 18.083L22.814 18.433C23.5435 18.8535 24.44 18.8535 25.1695 18.433L28.4445 16.542C28.626 16.4365 28.738 16.242 28.738 16.0315C28.738 15.821 28.626 15.6265 28.4445 15.521L25.1695 13.631C24.44 13.21 23.5435 13.21 22.814 13.631L22.0255 14.086C21.8435 14.191 21.62 14.191 21.4375 14.086L18.3875 12.325C18.205 12.22 18.0935 12.0255 18.0935 11.815C18.0935 11.6045 18.205 11.41 18.3875 11.305L22.814 8.7475C23.5435 8.327 24.44 8.327 25.1695 8.7475L36.0135 15.0115C36.7985 15.465 36.7985 16.5975 36.0135 17.051L25.1695 23.315C24.44 23.7355 23.5435 23.7355 22.814 23.315L14.4305 18.4725V29.503L17.1245 31.064L22.814 34.36C22.9945 34.4635 23.187 34.5425 23.3875 34.5965C23.9885 34.756 24.629 34.6705 25.1695 34.36L32.9645 29.858C33.329 29.6475 33.5535 29.258 33.5535 28.8375V22.408C33.5535 22.1975 33.666 22.002 33.8475 21.8985L36.897 20.1355C37.079 20.03 37.3035 20.03 37.486 20.1355C37.668 20.2405 37.78 20.436 37.78 20.6465V31.279C37.78 31.7 37.5555 32.0875 37.191 32.2995L25.1695 39.2435C24.8165 39.447 24.4155 39.554 24.008 39.5575H24C23.9425 39.5575 23.885 39.5505 23.8275 39.5475C23.783 39.544 23.739 39.544 23.6945 39.539C23.6335 39.531 23.573 39.516 23.514 39.5045C23.4725 39.495 23.4315 39.49 23.392 39.48C23.3265 39.4635 23.264 39.439 23.2015 39.416C23.1655 39.403 23.131 39.3945 23.098 39.3815C23.0015 39.342 22.906 39.296 22.8155 39.2435L12.4435 33.2525L10.799 32.319C10.431 32.1105 10.203 31.7195 10.203 31.2955V16.711C10.203 16.5005 10.2605 16.298 10.3625 16.1215Z" fill="#D86800"/>
    <path d="M25.1395 5.2255C24.7895 5.0235 24.3955 4.916 23.9915 4.912C23.589 4.916 23.193 5.024 22.843 5.2255L8.357 13.5925C7.6305 14.0125 7.1825 14.7875 7.1825 15.627V32.3625C7.1825 33.202 7.63 33.9775 8.357 34.3965L22.843 42.7635C23.198 42.969 23.5985 43.0775 24.0075 43.079C24.4165 43.0775 24.819 42.969 25.174 42.765L39.5965 34.4345C40.3225 34.0155 40.771 33.24 40.771 32.4V27.5645C40.7695 27.354 40.8825 27.1605 41.0635 27.055L44.135 25.282C44.3155 25.177 44.5405 25.177 44.7215 25.282C44.9035 25.3875 45.0155 25.581 45.0155 25.7915V34.7975C45.0135 35.182 44.9185 35.56 44.7375 35.8985C44.6915 36.1205 44.4505 36.3815 44.1085 36.6495C44.102 36.656 44.092 36.6625 44.084 36.669C43.2165 37.3445 41.781 38.041 41.5265 38.189L25.174 47.634C24.8075 47.844 24.3905 47.9525 23.9685 47.9475H23.95V47.946C23.561 47.936 23.18 47.8275 22.843 47.634L4.1415 36.832C3.415 36.413 2.9675 35.637 2.9675 34.7975V13.1935C2.9675 12.8165 3.015 12.432 3.1805 12.107C3.2035 12.0225 3.43 11.6075 3.897 11.266C4.073 11.1475 4.384 10.988 4.6755 10.8195L22.791 0.357001C23.1555 0.146501 23.571 0.0385009 23.9915 0.043501C24.4135 0.0385009 24.8275 0.146501 25.192 0.357001L41.908 10.0105C41.9455 10.0335 41.975 10.0615 42.008 10.088L42.22 10.209C42.788 10.5105 43.6785 10.97 44.1615 11.337L44.201 11.3665C44.2075 11.3715 44.214 11.3765 44.2205 11.3805C44.237 11.395 44.2485 11.409 44.265 11.424C44.442 11.572 44.5935 11.7465 44.71 11.9415C44.713 11.944 44.715 11.9475 44.718 11.9505L44.7165 11.951C44.912 12.277 45.0155 12.65 45.0155 13.0305V20.941C45.0155 21.151 44.904 21.345 44.7215 21.4505L41.65 23.225C41.4695 23.3285 41.2445 23.3285 41.0635 23.225C40.8815 23.1195 40.7695 22.926 40.7695 22.7155V15.5815C40.7695 14.7415 40.321 13.965 39.5935 13.5455L25.1395 5.225V5.2255Z" fill="#545454"/>
</svg>
